<?xml version="1.0" standalone="no"?>
<!DOCTYPE svg PUBLIC "-//W3C//DTD SVG 20010904//EN"
 "http://www.w3.org/TR/2001/REC-SVG-20010904/DTD/svg10.dtd">
<svg version="1.0" xmlns="http://www.w3.org/2000/svg"
 width="540.000000pt" height="520.000000pt" viewBox="0 0 540.000000 520.000000"
 preserveAspectRatio="xMidYMid meet">

<g transform="translate(0.000000,520.000000) scale(0.100000,-0.100000)"
fill="#000000" stroke="none">
<path d="M4894 4219 c-17 -21 -23 -46 -29 -121 -3 -37 -9 -78 -14 -91 -7 -17
-6 -29 2 -37 9 -10 9 -11 -1 -6 -6 4 -26 -3 -43 -15 l-30 -21 -25 23 c-29 28
-30 39 -3 73 11 14 16 26 10 26 -12 0 -111 -97 -111 -109 0 -5 -14 -14 -30
-21 -42 -17 -80 -1 -80 34 0 18 12 33 43 55 35 24 88 81 75 81 -2 0 -37 -14
-78 -31 -49 -19 -91 -45 -120 -73 -25 -24 -58 -51 -75 -59 -26 -13 -32 -13
-52 0 -27 18 -29 40 -7 71 8 12 11 22 6 22 -16 0 -98 -67 -116 -95 -20 -30
-25 -33 -221 -92 -161 -49 -259 -83 -253 -89 2 -2 33 6 68 17 36 12 153 39
260 61 159 33 222 41 340 44 166 5 227 -9 264 -59 26 -35 26 -108 1 -158 -11
-21 -14 -34 -7 -37 13 -4 4 -32 -10 -32 -5 0 -7 3 -4 8 2 4 -57 -54 -132 -128
-76 -75 -184 -171 -242 -214 -178 -133 -507 -345 -760 -488 -71 -41 -578 -293
-734 -365 -523 -243 -996 -427 -1450 -564 -344 -103 -529 -141 -701 -142 -101
0 -137 10 -230 66 -25 15 -32 93 -15 155 17 64 116 186 273 338 78 76 124 125
102 109 -158 -114 -347 -291 -414 -386 -26 -37 -37 -60 -28 -56 10 4 17 4 17
1 0 -2 -11 -9 -25 -14 -29 -11 -63 -75 -71 -132 -19 -150 208 -204 580 -138
421 74 1109 317 1771 625 521 243 698 332 1065 540 231 131 317 175 345 175
12 0 42 -7 65 -15 27 -9 57 -13 82 -8 l40 6 -29 12 c-37 16 -45 36 -31 75 23
67 143 130 298 157 85 15 111 23 74 23 -47 0 -60 62 -21 97 30 29 92 53 136
54 20 0 45 4 56 9 18 8 17 9 -7 9 -17 1 -29 8 -33 21 -17 53 24 84 130 99 103
15 153 55 170 136 l6 30 -15 -32 c-23 -50 -61 -83 -94 -83 -38 0 -54 20 -54
66 0 44 32 80 113 129 30 19 61 46 67 60 17 36 15 37 -13 10 -26 -27 -54 -32
-73 -13 -22 22 -13 62 28 123 49 74 55 101 34 156 -9 24 -19 66 -23 93 -5 39
-8 46 -17 35z"/>
<path d="M4105 3545 c-55 -13 -224 -48 -375 -80 -151 -31 -313 -66 -359 -77
-64 -15 -89 -18 -102 -10 -15 10 -25 3 -63 -39 -25 -28 -46 -55 -46 -60 0 -4
-12 -20 -26 -34 -14 -14 -24 -29 -21 -32 3 -3 34 2 69 11 128 31 290 58 299
49 5 -5 -7 -105 -31 -244 -22 -128 -40 -235 -40 -236 0 -22 134 47 149 76 5 9
26 111 46 226 20 116 40 214 44 218 11 11 196 47 243 47 33 0 51 9 111 56 84
65 168 110 252 135 l60 18 -55 -1 c-30 0 -100 -11 -155 -23z"/>
<path d="M1799 3322 c-79 -81 -125 -140 -116 -148 3 -3 22 12 42 33 l37 38
-38 -48 c-27 -34 -43 -47 -56 -44 -13 4 -19 -1 -22 -16 -2 -12 -18 -103 -35
-202 -34 -193 -36 -197 -99 -215 -62 -17 -181 -34 -188 -27 -4 4 9 102 30 219
20 117 36 219 36 227 0 8 -7 11 -20 8 -19 -5 -52 28 -74 73 -8 15 14 -9 40
-44 7 -11 16 -18 19 -15 7 7 -75 117 -119 159 l-36 34 26 -64 c38 -92 36 -171
-8 -395 -20 -99 -39 -196 -42 -215 -5 -28 -16 -42 -54 -68 -44 -30 -163 -142
-151 -142 3 0 34 11 69 25 65 25 100 31 100 17 0 -4 -11 -65 -24 -135 -32
-165 -80 -332 -119 -415 -17 -37 -33 -71 -35 -77 -11 -26 80 72 166 179 l95
118 28 157 c16 86 29 165 29 176 0 11 4 26 8 32 13 21 262 66 262 47 0 -3 -14
-81 -30 -174 l-31 -169 31 -93 c40 -122 70 -174 96 -170 37 7 41 18 31 89 -16
115 -2 233 77 668 78 433 102 538 137 607 11 22 19 42 16 44 -2 2 -37 -31 -78
-74z"/>
<path d="M2798 3335 c24 -20 32 -34 32 -58 -1 -18 -43 -135 -94 -262 l-93
-230 -72 -40 c-74 -41 -153 -102 -116 -89 41 14 125 17 125 4 0 -6 -25 -76
-55 -155 -30 -78 -55 -146 -55 -150 0 -4 42 32 94 79 88 81 95 91 130 176 21
49 42 92 46 95 18 11 234 64 241 59 5 -3 18 -37 30 -77 30 -102 30 -102 100
-67 32 17 59 33 59 36 0 4 -14 47 -31 96 l-31 90 71 73 c39 40 71 76 71 79 0
3 -31 -10 -70 -29 -38 -19 -76 -35 -85 -35 -19 0 -34 37 -90 219 -25 80 -49
147 -54 149 -6 2 -8 9 -5 17 7 18 -27 29 -131 41 l-50 6 33 -27z m121 -356
c12 -41 21 -81 21 -88 0 -6 -17 -19 -37 -27 -21 -8 -46 -19 -55 -24 -25 -14
-48 -12 -48 3 0 39 80 232 90 220 5 -4 17 -42 29 -84z"/>
<path d="M2620 3295 c-42 -13 -250 -51 -524 -96 -65 -11 -126 -17 -136 -14 -9
3 -25 3 -34 -1 -14 -5 -13 -10 9 -36 14 -16 25 -35 25 -41 0 -7 -13 -79 -29
-162 l-29 -150 -55 -60 c-31 -32 -55 -61 -53 -63 2 -2 21 1 42 7 21 6 40 9 42
6 2 -2 -7 -70 -22 -152 l-26 -147 -47 -48 c-26 -26 -44 -48 -41 -48 4 0 74 14
155 31 214 44 353 69 393 69 31 0 44 10 108 77 108 113 109 117 9 83 -114 -39
-355 -92 -393 -86 -22 4 -23 14 -4 146 7 52 18 101 25 108 6 7 55 21 109 31
l99 19 65 64 c69 66 92 91 88 96 -2 1 -20 -5 -41 -14 -105 -43 -295 -80 -295
-57 0 22 34 201 41 214 6 11 49 22 158 38 82 13 159 21 170 18 21 -5 87 36
194 123 77 62 76 69 -3 45z"/>
<path d="M3476 2590 c-21 -16 -53 -34 -71 -40 -50 -16 -52 -46 -9 -116 19 -33
40 -78 47 -101 6 -24 15 -43 19 -43 4 0 8 2 8 5 0 3 11 60 24 128 35 181 38
197 29 197 -4 0 -25 -14 -47 -30z"/>
<path d="M3165 2443 c-16 -3 -34 -8 -38 -12 -4 -5 23 -41 62 -82 l70 -74 -19
60 c-10 33 -21 72 -25 88 -3 15 -9 26 -13 26 -4 -1 -20 -4 -37 -6z"/>
<path d="M3626 2390 c-20 -23 -47 -61 -59 -87 -12 -25 -34 -59 -48 -74 -27
-29 -87 -167 -136 -316 -16 -46 -32 -84 -37 -85 -6 -2 -28 43 -51 99 -22 56
-43 104 -45 106 -3 2 -23 7 -45 10 l-40 6 -1 -47 c-1 -34 -13 -70 -43 -129
-22 -46 -46 -83 -51 -83 -5 0 -12 12 -15 28 -3 15 -17 74 -32 132 -28 113 -51
148 -127 184 -61 29 -73 21 -33 -23 36 -40 58 -99 118 -311 19 -67 32 -139 32
-172 0 -32 4 -58 8 -58 15 0 159 240 182 303 3 9 11 17 16 17 7 0 68 -138 121
-276 l12 -29 13 35 c8 19 48 140 90 268 86 264 118 348 175 462 22 44 38 80
36 80 -2 0 -20 -18 -40 -40z"/>
<path d="M2663 2059 c13 -18 16 -38 12 -89 -2 -36 -2 -56 1 -45 8 29 45 65 65
65 48 0 81 -114 58 -201 -6 -24 -12 -57 -13 -74 -1 -19 -7 -29 -15 -27 -8 2
-23 -6 -35 -16 -11 -11 -35 -27 -52 -36 -30 -15 -34 -14 -78 8 -25 13 -43 26
-40 29 3 3 1 21 -4 41 -14 50 8 151 52 237 27 53 32 69 20 69 -27 0 -86 -52
-81 -71 3 -9 0 -23 -5 -30 -7 -10 -8 -9 -4 5 14 41 -33 -14 -50 -60 -23 -61
-17 -192 12 -230 69 -93 182 -98 278 -13 56 50 84 101 97 180 14 85 -17 216
-49 204 -12 -4 -12 -3 -3 8 16 20 -9 38 -67 48 -26 4 -62 11 -81 15 l-34 7 16
-24z"/>
<path d="M2229 2016 c-67 -15 -215 -96 -273 -149 l-41 -38 44 22 c50 24 141
53 147 46 3 -2 -1 -37 -7 -78 -9 -54 -20 -84 -41 -112 l-30 -38 26 7 c14 3 26
2 26 -2 0 -22 -30 -246 -36 -268 -11 -45 5 -28 41 44 37 73 65 171 65 228 0
28 5 35 32 46 18 8 37 12 42 10 6 -2 32 -37 58 -77 104 -163 246 -313 356
-375 32 -18 16 2 -73 89 -102 99 -238 272 -234 296 3 20 -2 34 -10 28 -5 -3
-13 0 -17 6 -4 8 -3 9 4 5 7 -4 12 -1 12 8 0 8 -4 18 -10 21 -21 13 -8 35 35
56 60 30 105 79 115 125 8 33 6 44 -16 77 -24 37 -24 37 -92 36 -37 -1 -92 -7
-123 -13z m153 -54 c7 -7 7 -20 0 -41 -8 -22 -7 -31 1 -35 7 -2 3 -5 -9 -5
-11 -1 -29 -10 -39 -21 -10 -11 -36 -25 -57 -32 -21 -6 -43 -17 -48 -24 -6 -6
-20 -10 -31 -7 -19 5 -20 11 -14 62 3 31 8 64 11 73 11 37 157 59 186 30z"/>
<path d="M1700 1812 c0 -8 72 -64 109 -86 9 -5 -4 14 -29 41 -40 45 -80 68
-80 45z"/>
</g>
</svg>
